# xmcd
#
# Track frame offsets:
#	150
#	12264
#	28865
#	41228
#	53093
#	65981
#	88747
#	102329
#	113977
#	128601
#
# Disc length: 1938 seconds
#
# Revision: 0
# Processed by: cddbd v1.5.1PL2 Copyright (c) Steve Scherf et al.
# Submitted via: EasyCDDAExtractor 9.0.0.1
#
DISCID=8b07900a
DTITLE=Elvis Presley - The Original Elvis Presley Collection 34 - On Stage, Fe
DTITLE=bruary 1970
DYEAR=1970
DGENRE=
TTITLE0=C.C.Rider
TTITLE1=Release Me (and Let Me Love Again)
TTITLE2=Sweet Caroline
TTITLE3=Runaway
TTITLE4=The Wonder of You
TTITLE5=Polk Salad Annie
TTITLE6=Yesterday
TTITLE7=Proud Mary
TTITLE8=Walk a Mile in My Shoes
TTITLE9=Let It Be Me
EXTD=On Stage\n
EXTT0=
EXTT1=
EXTT2=
EXTT3=
EXTT4=
EXTT5=
EXTT6=
EXTT7=
EXTT8=
EXTT9=
PLAYORDER=
